
<!-- Generated by graphviz version 2.40.1 (20161225.0304)
 -->
<!-- Title: Argument Map Pages: 1 -->
<svg width="418pt" height="172pt"
 viewBox="0.00 0.00 418.00 172.00" xmlns="http://www.w3.org/2000/svg" xmlns:xlink="http://www.w3.org/1999/xlink">
<g id="graph0" class="graph" transform="scale(1 1) rotate(0) translate(4 168)">
<title>Argument Map</title>
<!-- n0 -->
<g id="node1" class="node">
<title>n0</title>
<path fill="#ffffff" stroke="#1b9e77" stroke-width="2" d="M291,-52C291,-52 119,-52 119,-52 113,-52 107,-46 107,-40 107,-40 107,-12 107,-12 107,-6 113,0 119,0 119,0 291,0 291,0 297,0 303,-6 303,-12 303,-12 303,-40 303,-40 303,-46 297,-52 291,-52"/>
<text text-anchor="start" x="171.3815" y="-38" font-family="arial" font-weight="bold" font-size="10.00" fill="#000000">Zentrale These</text>
<text text-anchor="start" x="119.4285" y="-21" font-family="arial" font-size="10.00" fill="#000000">Eine General AI stellt eine Gefahr für</text>
<text text-anchor="start" x="158.0435" y="-9" font-family="arial" font-size="10.00" fill="#000000"> unsere Existenz dar.</text>
</g>
<!-- n1 -->
<g id="node2" class="node">
<title>n1</title>
<path fill="#ffffff" stroke="#1b9e77" stroke-width="2" d="M184,-158C184,-158 12,-158 12,-158 6,-158 0,-152 0,-146 0,-146 0,-106 0,-106 0,-100 6,-94 12,-94 12,-94 184,-94 184,-94 190,-94 196,-100 196,-106 196,-106 196,-146 196,-146 196,-152 190,-158 184,-158"/>
<text text-anchor="start" x="76.889" y="-144" font-family="arial" font-weight="bold" font-size="10.00" fill="#000000">Neuralink</text>
<text text-anchor="start" x="17.1605" y="-127" font-family="arial" font-size="10.00" fill="#000000">Mit einem Human&#45;Machine&#45;Interface</text>
<text text-anchor="start" x="35.644" y="-115" font-family="arial" font-size="10.00" fill="#000000"> können wir &quot;along the ride&quot;</text>
<text text-anchor="start" x="19.101" y="-103" font-family="arial" font-size="10.00" fill="#000000"> mitgenommen werden mit der GAI.</text>
</g>
<!-- n0&#45;&gt;n1 -->
<g id="edge1" class="edge">
<title>n0&#45;&gt;n1</title>
<path fill="none" stroke="#00ff00" d="M177.1663,-52.0128C165.8851,-62.556 152.6084,-74.9641 140.1849,-86.5749"/>
<polygon fill="#00ff00" stroke="#00ff00" points="137.5014,-84.2922 132.5851,-93.6774 142.281,-89.4065 137.5014,-84.2922"/>
</g>
<!-- n2 -->
<g id="node3" class="node">
<title>n2</title>
<path fill="#ffffff" stroke="#1b9e77" stroke-width="2" d="M398,-164C398,-164 226,-164 226,-164 220,-164 214,-158 214,-152 214,-152 214,-100 214,-100 214,-94 220,-88 226,-88 226,-88 398,-88 398,-88 404,-88 410,-94 410,-100 410,-100 410,-152 410,-152 410,-158 404,-164 398,-164"/>
<text text-anchor="start" x="248.6675" y="-150" font-family="arial" font-weight="bold" font-size="10.00" fill="#000000">extraterrestrische Zivilisation</text>
<text text-anchor="start" x="235.332" y="-133" font-family="arial" font-size="10.00" fill="#000000">Mit der Errichtung einer Zivilisation</text>
<text text-anchor="start" x="244.764" y="-121" font-family="arial" font-size="10.00" fill="#000000"> auf dem Mars, haben wir eine</text>
<text text-anchor="start" x="240.3355" y="-109" font-family="arial" font-size="10.00" fill="#000000"> Backup&#45;Zivilisation, falls wir alle</text>
<text text-anchor="start" x="293.9385" y="-97" font-family="arial" font-size="10.00" fill="#000000"> sterben</text>
</g>
<!-- n0&#45;&gt;n2 -->
<g id="edge2" class="edge">
<title>n0&#45;&gt;n2</title>
<path fill="none" stroke="#00ff00" d="M232.8337,-52.0128C242.2012,-60.7675 252.9445,-70.8079 263.4328,-80.6101"/>
<polygon fill="#00ff00" stroke="#00ff00" points="261.3057,-83.4127 271.0015,-87.6837 266.0853,-78.2985 261.3057,-83.4127"/>
</g>
</g>
</svg>
