
<!-- Generated by graphviz version 2.40.1 (20161225.0304)
 -->
<!-- Title: Argument Map Pages: 1 -->
<svg width="642pt" height="284pt"
 viewBox="0.00 0.00 642.00 284.00" xmlns="http://www.w3.org/2000/svg" xmlns:xlink="http://www.w3.org/1999/xlink">
<g id="graph0" class="graph" transform="scale(1 1) rotate(0) translate(4 280)">
<title>Argument Map</title>
<!-- n0 -->
<g id="node1" class="node">
<title>n0</title>
<path fill="#ffffff" stroke="#1b9e77" stroke-width="2" d="M398,-164C398,-164 226,-164 226,-164 220,-164 214,-158 214,-152 214,-152 214,-124 214,-124 214,-118 220,-112 226,-112 226,-112 398,-112 398,-112 404,-112 410,-118 410,-124 410,-124 410,-152 410,-152 410,-158 404,-164 398,-164"/>
<text text-anchor="start" x="278.3815" y="-150" font-family="arial" font-weight="bold" font-size="10.00" fill="#000000">Zentrale These</text>
<text text-anchor="start" x="226.4285" y="-133" font-family="arial" font-size="10.00" fill="#000000">Eine General AI stellt eine Gefahr für</text>
<text text-anchor="start" x="265.0435" y="-121" font-family="arial" font-size="10.00" fill="#000000"> unsere Existenz dar.</text>
</g>
<!-- n1 -->
<g id="node2" class="node">
<title>n1</title>
<path fill="#ffffff" stroke="#1b9e77" stroke-width="2" d="M184,-270C184,-270 12,-270 12,-270 6,-270 0,-264 0,-258 0,-258 0,-218 0,-218 0,-212 6,-206 12,-206 12,-206 184,-206 184,-206 190,-206 196,-212 196,-218 196,-218 196,-258 196,-258 196,-264 190,-270 184,-270"/>
<text text-anchor="start" x="76.889" y="-256" font-family="arial" font-weight="bold" font-size="10.00" fill="#000000">Neuralink</text>
<text text-anchor="start" x="17.1605" y="-239" font-family="arial" font-size="10.00" fill="#000000">Mit einem Human&#45;Machine&#45;Interface</text>
<text text-anchor="start" x="35.644" y="-227" font-family="arial" font-size="10.00" fill="#000000"> können wir &quot;along the ride&quot;</text>
<text text-anchor="start" x="19.101" y="-215" font-family="arial" font-size="10.00" fill="#000000"> mitgenommen werden mit der GAI.</text>
</g>
<!-- n0&#45;&gt;n1 -->
<g id="edge1" class="edge">
<title>n0&#45;&gt;n1</title>
<path fill="none" stroke="#00ff00" d="M256.3327,-164.0128C231.8501,-175.4532 202.6687,-189.0894 176.0669,-201.5201"/>
<polygon fill="#00ff00" stroke="#00ff00" points="174.355,-198.4567 166.7771,-205.8612 177.3185,-204.7985 174.355,-198.4567"/>
</g>
<!-- n2 -->
<g id="node3" class="node">
<title>n2</title>
<path fill="#ffffff" stroke="#1b9e77" stroke-width="2" d="M398,-276C398,-276 226,-276 226,-276 220,-276 214,-270 214,-264 214,-264 214,-212 214,-212 214,-206 220,-200 226,-200 226,-200 398,-200 398,-200 404,-200 410,-206 410,-212 410,-212 410,-264 410,-264 410,-270 404,-276 398,-276"/>
<text text-anchor="start" x="248.6675" y="-262" font-family="arial" font-weight="bold" font-size="10.00" fill="#000000">extraterrestrische Zivilisation</text>
<text text-anchor="start" x="235.332" y="-245" font-family="arial" font-size="10.00" fill="#000000">Mit der Errichtung einer Zivilisation</text>
<text text-anchor="start" x="244.764" y="-233" font-family="arial" font-size="10.00" fill="#000000"> auf dem Mars, haben wir eine</text>
<text text-anchor="start" x="240.3355" y="-221" font-family="arial" font-size="10.00" fill="#000000"> Backup&#45;Zivilisation, falls wir alle</text>
<text text-anchor="start" x="293.9385" y="-209" font-family="arial" font-size="10.00" fill="#000000"> sterben</text>
</g>
<!-- n0&#45;&gt;n2 -->
<g id="edge2" class="edge">
<title>n0&#45;&gt;n2</title>
<path fill="none" stroke="#00ff00" d="M312,-164.0128C312,-171.8325 312,-180.678 312,-189.4633"/>
<polygon fill="#00ff00" stroke="#00ff00" points="308.5001,-189.6836 312,-199.6837 315.5001,-189.6837 308.5001,-189.6836"/>
</g>
<!-- n3 -->
<g id="node4" class="node">
<title>n3</title>
<path fill="#ffffff" stroke="#1b9e77" stroke-width="2" d="M612,-276C612,-276 440,-276 440,-276 434,-276 428,-270 428,-264 428,-264 428,-212 428,-212 428,-206 434,-200 440,-200 440,-200 612,-200 612,-200 618,-200 624,-206 624,-212 624,-212 624,-264 624,-264 624,-270 618,-276 612,-276"/>
<text text-anchor="start" x="493.2155" y="-262" font-family="arial" font-weight="bold" font-size="10.00" fill="#000000">Einschränkung</text>
<text text-anchor="start" x="455.1495" y="-245" font-family="arial" font-size="10.00" fill="#000000">Staatliche oder Super&#45;staatliche</text>
<text text-anchor="start" x="449.409" y="-233" font-family="arial" font-size="10.00" fill="#000000"> Aufsichtsbehörden schränken die</text>
<text text-anchor="start" x="449.596" y="-221" font-family="arial" font-size="10.00" fill="#000000"> Entwicklung einer GAI ein, um die</text>
<text text-anchor="start" x="469.8815" y="-209" font-family="arial" font-size="10.00" fill="#000000"> Gefahren zu minimieren.</text>
</g>
<!-- n0&#45;&gt;n3 -->
<g id="edge3" class="edge">
<title>n0&#45;&gt;n3</title>
<path fill="none" stroke="#00ff00" d="M367.6673,-164.0128C388.3306,-173.6685 412.3411,-184.8884 435.3228,-195.6275"/>
<polygon fill="#00ff00" stroke="#00ff00" points="433.8687,-198.8112 444.4101,-199.8739 436.8322,-192.4695 433.8687,-198.8112"/>
</g>
<!-- n4 -->
<g id="node5" class="node">
<title>n4</title>
<path fill="#ffffff" stroke="#1b9e77" stroke-width="2" d="M184,-70C184,-70 12,-70 12,-70 6,-70 0,-64 0,-58 0,-58 0,-18 0,-18 0,-12 6,-6 12,-6 12,-6 184,-6 184,-6 190,-6 196,-12 196,-18 196,-18 196,-58 196,-58 196,-64 190,-70 184,-70"/>
<text text-anchor="start" x="69.381" y="-56" font-family="arial" font-weight="bold" font-size="10.00" fill="#000000">Abhängigkeit</text>
<text text-anchor="start" x="20.7645" y="-39" font-family="arial" font-size="10.00" fill="#000000">Innerhalb kürzester Zeit nach der</text>
<text text-anchor="start" x="20.2105" y="-27" font-family="arial" font-size="10.00" fill="#000000"> Entwicklung einer GAI wird unsere</text>
<text text-anchor="start" x="33.8245" y="-15" font-family="arial" font-size="10.00" fill="#000000"> Zivilisation abhängig von ihr.</text>
</g>
<!-- n4&#45;&gt;n0 -->
<g id="edge4" class="edge">
<title>n4&#45;&gt;n0</title>
<path fill="none" stroke="#00ff00" d="M166.594,-70.0533C192.3991,-82.1117 221.6405,-95.776 247.0991,-107.6725"/>
<polygon fill="#00ff00" stroke="#00ff00" points="245.7526,-110.9065 256.294,-111.9692 248.716,-104.5647 245.7526,-110.9065"/>
</g>
<!-- n5 -->
<g id="node6" class="node">
<title>n5</title>
<path fill="#ffffff" stroke="#1b9e77" stroke-width="2" d="M398,-64C398,-64 226,-64 226,-64 220,-64 214,-58 214,-52 214,-52 214,-24 214,-24 214,-18 220,-12 226,-12 226,-12 398,-12 398,-12 404,-12 410,-18 410,-24 410,-24 410,-52 410,-52 410,-58 404,-64 398,-64"/>
<text text-anchor="start" x="258.104" y="-50" font-family="arial" font-weight="bold" font-size="10.00" fill="#000000">Unmoralische Absichten</text>
<text text-anchor="start" x="232.258" y="-33" font-family="arial" font-size="10.00" fill="#000000">Menschen mit schlechten Absichten</text>
<text text-anchor="start" x="240.688" y="-21" font-family="arial" font-size="10.00" fill="#000000"> können die GAI missbrauchen.</text>
</g>
<!-- n5&#45;&gt;n0 -->
<g id="edge5" class="edge">
<title>n5&#45;&gt;n0</title>
<path fill="none" stroke="#00ff00" d="M312,-64.0128C312,-75.4964 312,-89.1924 312,-101.6608"/>
<polygon fill="#00ff00" stroke="#00ff00" points="308.5001,-101.77 312,-111.7701 315.5001,-101.7701 308.5001,-101.77"/>
</g>
<!-- n6 -->
<g id="node7" class="node">
<title>n6</title>
<path fill="#ffffff" stroke="#1b9e77" stroke-width="2" d="M622,-76C622,-76 440,-76 440,-76 434,-76 428,-70 428,-64 428,-64 428,-12 428,-12 428,-6 434,0 440,0 440,0 622,0 622,0 628,0 634,-6 634,-12 634,-12 634,-64 634,-64 634,-70 628,-76 622,-76"/>
<text text-anchor="start" x="471.536" y="-62" font-family="arial" font-weight="bold" font-size="10.00" fill="#000000">Abschätzung der Gefahren</text>
<text text-anchor="start" x="437.743" y="-45" font-family="arial" font-size="10.00" fill="#000000">Eine Abschätzung möglicher Gefahren ist</text>
<text text-anchor="start" x="440.5325" y="-33" font-family="arial" font-size="10.00" fill="#000000"> schwer bis unmöglich. Deshalb wird die</text>
<text text-anchor="start" x="451.8185" y="-21" font-family="arial" font-size="10.00" fill="#000000"> Erfindung einer GAI als Singularität</text>
<text text-anchor="start" x="504.045" y="-9" font-family="arial" font-size="10.00" fill="#000000"> bezeichnet.</text>
</g>
<!-- n6&#45;&gt;n0 -->
<g id="edge6" class="edge">
<title>n6&#45;&gt;n0</title>
<path fill="none" stroke="#00ff00" d="M447.5808,-76.091C424.6291,-86.5712 400.0544,-97.7925 378.2169,-107.764"/>
<polygon fill="#00ff00" stroke="#00ff00" points="376.681,-104.6176 369.0382,-111.9551 379.5886,-110.9852 376.681,-104.6176"/>
</g>
</g>
</svg>
