
<!-- Generated by graphviz version 2.40.1 (20161225.0304)
 -->
<!-- Title: Argument Map Pages: 1 -->
<svg width="720pt" height="219pt"
 viewBox="0.00 0.00 720.00 219.31" xmlns="http://www.w3.org/2000/svg" xmlns:xlink="http://www.w3.org/1999/xlink">
<g id="graph0" class="graph" transform="scale(.2147 .2147) rotate(0) translate(4 1017.6)">
<title>Argument Map</title>
<g id="clust1" class="cluster">
<title>cluster_1</title>
<polygon fill="#dadada" stroke="#dadada" points="8,-16 8,-309.6 648,-309.6 648,-16 8,-16"/>
<text text-anchor="start" x="214.6444" y="-294.8" font-family="arial" font-size="12.00" fill="#000000">Computer Science Research for Robust AI</text>
</g>
<g id="clust2" class="cluster">
<title>cluster_2</title>
<polygon fill="#dadada" stroke="#dadada" points="656,-8 656,-969.6 2674,-969.6 2674,-8 656,-8"/>
<text text-anchor="start" x="1638.9948" y="-954.8" font-family="arial" font-size="12.00" fill="#000000">Extinction</text>
</g>
<g id="clust3" class="cluster">
<title>cluster_3</title>
<polygon fill="#bababa" stroke="#bababa" points="1580,-16 1580,-614.4 2006,-614.4 2006,-16 1580,-16"/>
<text text-anchor="start" x="1732.9928" y="-599.6" font-family="arial" font-size="12.00" fill="#000000">First&#45;mover advantage</text>
</g>
<g id="clust4" class="cluster">
<title>cluster_4</title>
<polygon fill="#bababa" stroke="#bababa" points="1347,-329.6 1347,-512 1559,-512 1559,-329.6 1347,-329.6"/>
<text text-anchor="start" x="1403.989" y="-497.2" font-family="arial" font-size="12.00" fill="#000000">Orthogonal Thesis</text>
</g>
<g id="clust5" class="cluster">
<title>cluster_5</title>
<polygon fill="#bababa" stroke="#bababa" points="2014,-526 2014,-752.8 2666,-752.8 2666,-526 2014,-526"/>
<text text-anchor="start" x="2321.6682" y="-738" font-family="arial" font-size="12.00" fill="#000000">Failure</text>
</g>
<g id="clust6" class="cluster">
<title>cluster_6</title>
<polygon fill="#bababa" stroke="#bababa" points="1344,-526 1344,-728.8 1562,-728.8 1562,-526 1344,-526"/>
<text text-anchor="start" x="1417.3234" y="-714" font-family="arial" font-size="12.00" fill="#000000">Convergence</text>
</g>
<g id="clust7" class="cluster">
<title>cluster_7</title>
<polygon fill="#bababa" stroke="#bababa" points="1110,-646.4 1110,-879.2 1322,-879.2 1322,-646.4 1110,-646.4"/>
<text text-anchor="start" x="1203.6664" y="-864.4" font-family="arial" font-size="12.00" fill="#000000">Turn</text>
</g>
<g id="clust8" class="cluster">
<title>cluster_8</title>
<polygon fill="#bababa" stroke="#bababa" points="870,-646.4 870,-861.2 1102,-861.2 1102,-646.4 870,-646.4"/>
<text text-anchor="start" x="950.66" y="-846.4" font-family="arial" font-size="12.00" fill="#000000">Development</text>
</g>
<g id="clust9" class="cluster">
<title>cluster_9</title>
<polygon fill="#dadada" stroke="#dadada" points="214,-778.8 214,-969.6 648,-969.6 648,-778.8 214,-778.8"/>
<text text-anchor="start" x="393.9926" y="-954.8" font-family="arial" font-size="12.00" fill="#000000">Stock Trading</text>
</g>
<g id="clust10" class="cluster">
<title>cluster_10</title>
<polygon fill="#dadada" stroke="#dadada" points="2682,-8 2682,-235.2 3338,-235.2 3338,-8 2682,-8"/>
<text text-anchor="start" x="2918.6548" y="-220.4" font-family="arial" font-size="12.00" fill="#000000">Optimizing AI’s Economic Impact</text>
</g>
<g id="clust11" class="cluster">
<title>cluster_11</title>
<polygon fill="#bababa" stroke="#bababa" points="2690,-16 2690,-204.8 3330,-204.8 3330,-16 2690,-16"/>
<text text-anchor="start" x="2801.6314" y="-190" font-family="arial" font-size="12.00" fill="#000000">The Second Machine Age: Work, Progress and Prosperity in a Time of Brilliant</text>
<text text-anchor="start" x="2972.6566" y="-175.6" font-family="arial" font-size="12.00" fill="#000000"> Technologies</text>
</g>
<!-- n1 -->
<g id="node1" class="node">
<title>n1</title>
<path fill="#ffffff" stroke="#1b9e77" stroke-width="2" d="M628,-160C628,-160 456,-160 456,-160 450,-160 444,-154 444,-148 444,-148 444,-108 444,-108 444,-102 450,-96 456,-96 456,-96 628,-96 628,-96 634,-96 640,-102 640,-108 640,-108 640,-148 640,-148 640,-154 634,-160 628,-160"/>
<text text-anchor="start" x="511.7205" y="-146" font-family="arial" font-weight="bold" font-size="10.00" fill="#000000">moralische AI</text>
<text text-anchor="start" x="483.102" y="-129" font-family="arial" font-size="10.00" fill="#000000">AI, die moralisch relevante</text>
<text text-anchor="start" x="471.419" y="-117" font-family="arial" font-size="10.00" fill="#000000"> Entscheidungen treffen werden</text>
<text text-anchor="start" x="517.275" y="-105" font-family="arial" font-size="10.00" fill="#000000"> entwickelt.</text>
</g>
<!-- n26 -->
<g id="node6" class="node">
<title>n26</title>
<path fill="#1b9e77" stroke="#000000" d="M574,-279.2C574,-279.2 402,-279.2 402,-279.2 396,-279.2 390,-273.2 390,-267.2 390,-267.2 390,-255.2 390,-255.2 390,-249.2 396,-243.2 402,-243.2 402,-243.2 574,-243.2 574,-243.2 580,-243.2 586,-249.2 586,-255.2 586,-255.2 586,-267.2 586,-267.2 586,-273.2 580,-279.2 574,-279.2"/>
<text text-anchor="start" x="424.9275" y="-259.2" font-family="arial" font-weight="bold" font-size="10.00" fill="#000000">AI trifft schlechte Entscheide</text>
</g>
<!-- n1&#45;&gt;n26 -->
<g id="edge35" class="edge">
<title>n1&#45;&gt;n26</title>
<path fill="none" stroke="#00ff00" d="M528.9281,-160.244C519.8203,-182.71 507.8007,-212.3584 499.1462,-233.706"/>
<polygon fill="#00ff00" stroke="#00ff00" points="495.826,-232.5801 495.3125,-243.1625 502.3132,-235.2101 495.826,-232.5801"/>
</g>
<!-- n2 -->
<g id="node2" class="node">
<title>n2</title>
<path fill="#ffffff" stroke="#1b9e77" stroke-width="2" d="M414,-148C414,-148 242,-148 242,-148 236,-148 230,-142 230,-136 230,-136 230,-120 230,-120 230,-114 236,-108 242,-108 242,-108 414,-108 414,-108 420,-108 426,-114 426,-120 426,-120 426,-136 426,-136 426,-142 420,-148 414,-148"/>
<text text-anchor="start" x="280.7625" y="-134" font-family="arial" font-weight="bold" font-size="10.00" fill="#000000">schlechte Entscheide</text>
<text text-anchor="start" x="246.5805" y="-117" font-family="arial" font-size="10.00" fill="#000000">AI treffen schlechte Entscheidungen.</text>
</g>
<!-- n2&#45;&gt;n26 -->
<g id="edge36" class="edge">
<title>n2&#45;&gt;n26</title>
<path fill="none" stroke="#00ff00" d="M344.5036,-148.1784C364.2216,-171.3563 399.0766,-209.4887 435,-235.2 436.2241,-236.0761 437.4822,-236.9373 438.7663,-237.7823"/>
<polygon fill="#00ff00" stroke="#00ff00" points="437.1727,-240.9095 447.5358,-243.1132 440.8088,-234.9279 437.1727,-240.9095"/>
</g>
<!-- n28 -->
<g id="node8" class="node">
<title>n28</title>
<path fill="#1b9e77" stroke="#000000" d="M307,-279.2C307,-279.2 135,-279.2 135,-279.2 129,-279.2 123,-273.2 123,-267.2 123,-267.2 123,-255.2 123,-255.2 123,-249.2 129,-243.2 135,-243.2 135,-243.2 307,-243.2 307,-243.2 313,-243.2 319,-249.2 319,-255.2 319,-255.2 319,-267.2 319,-267.2 319,-273.2 313,-279.2 307,-279.2"/>
<text text-anchor="start" x="163.4855" y="-259.2" font-family="arial" font-weight="bold" font-size="10.00" fill="#000000">schlecht und weitreichend</text>
</g>
<!-- n2&#45;&gt;n28 -->
<g id="edge37" class="edge">
<title>n2&#45;&gt;n28</title>
<path fill="none" stroke="#00ff00" d="M311.749,-148.2302C293.1551,-171.377 262.6443,-209.3587 242.1966,-234.8131"/>
<polygon fill="#00ff00" stroke="#00ff00" points="239.2138,-232.9377 235.6798,-242.9258 244.6711,-237.3216 239.2138,-232.9377"/>
</g>
<!-- n3 -->
<g id="node3" class="node">
<title>n3</title>
<path fill="#ffffff" stroke="#1b9e77" stroke-width="2" d="M200,-160C200,-160 28,-160 28,-160 22,-160 16,-154 16,-148 16,-148 16,-108 16,-108 16,-102 22,-96 28,-96 28,-96 200,-96 200,-96 206,-96 212,-102 212,-108 212,-108 212,-148 212,-148 212,-154 206,-160 200,-160"/>
<text text-anchor="start" x="104.0015" y="-146" font-family="arial" font-weight="bold" font-size="10.00" fill="#000000">DST</text>
<text text-anchor="start" x="49.818" y="-129" font-family="arial" font-size="10.00" fill="#000000">Wenn DST gut funktionieren,</text>
<text text-anchor="start" x="63.1605" y="-117" font-family="arial" font-size="10.00" fill="#000000"> kontrollieren sie selbst</text>
<text text-anchor="start" x="58.1485" y="-105" font-family="arial" font-size="10.00" fill="#000000"> Entscheidungsprozesse.</text>
</g>
<!-- n3&#45;&gt;n28 -->
<g id="edge38" class="edge">
<title>n3&#45;&gt;n28</title>
<path fill="none" stroke="#00ff00" d="M139.9017,-160.244C158.357,-183.2183 182.846,-213.7036 200.0675,-235.142"/>
<polygon fill="#00ff00" stroke="#00ff00" points="197.5191,-237.5583 206.5104,-243.1625 202.9764,-233.1744 197.5191,-237.5583"/>
</g>
<!-- n24 -->
<g id="node4" class="node">
<title>n24</title>
<path fill="#1b9e77" stroke="#000000" d="M628,-60C628,-60 456,-60 456,-60 450,-60 444,-54 444,-48 444,-48 444,-36 444,-36 444,-30 450,-24 456,-24 456,-24 628,-24 628,-24 634,-24 640,-30 640,-36 640,-36 640,-48 640,-48 640,-54 634,-60 628,-60"/>
<text text-anchor="start" x="473.3845" y="-40" font-family="arial" font-weight="bold" font-size="10.00" fill="#000000">Vorteile verhindern Moratorium</text>
</g>
<!-- n24&#45;&gt;n1 -->
<g id="edge18" class="edge">
<title>n24&#45;&gt;n1</title>
<path fill="none" stroke="#00ff00" d="M542,-60.2384C542,-67.7614 542,-76.8182 542,-85.8267"/>
<polygon fill="#00ff00" stroke="#00ff00" points="538.5001,-85.8927 542,-95.8927 545.5001,-85.8927 538.5001,-85.8927"/>
</g>
<!-- n25 -->
<g id="node5" class="node">
<title>n25</title>
<path fill="#1b9e77" stroke="#000000" d="M414,-60C414,-60 242,-60 242,-60 236,-60 230,-54 230,-48 230,-48 230,-36 230,-36 230,-30 236,-24 242,-24 242,-24 414,-24 414,-24 420,-24 426,-30 426,-36 426,-36 426,-48 426,-48 426,-54 420,-60 414,-60"/>
<text text-anchor="start" x="280.7625" y="-40" font-family="arial" font-weight="bold" font-size="10.00" fill="#000000">schlechte Entscheide</text>
</g>
<!-- n25&#45;&gt;n2 -->
<g id="edge19" class="edge">
<title>n25&#45;&gt;n2</title>
<path fill="none" stroke="#00ff00" d="M328,-60.2384C328,-71.1781 328,-85.3614 328,-97.9228"/>
<polygon fill="#00ff00" stroke="#00ff00" points="324.5001,-97.986 328,-107.986 331.5001,-97.986 324.5001,-97.986"/>
</g>
<!-- n27 -->
<g id="node7" class="node">
<title>n27</title>
<path fill="#1b9e77" stroke="#000000" d="M200,-60C200,-60 28,-60 28,-60 22,-60 16,-54 16,-48 16,-48 16,-36 16,-36 16,-30 22,-24 28,-24 28,-24 200,-24 200,-24 206,-24 212,-30 212,-36 212,-36 212,-48 212,-48 212,-54 206,-60 200,-60"/>
<text text-anchor="start" x="62.3245" y="-40" font-family="arial" font-weight="bold" font-size="10.00" fill="#000000">Decision Support Tools</text>
</g>
<!-- n27&#45;&gt;n3 -->
<g id="edge20" class="edge">
<title>n27&#45;&gt;n3</title>
<path fill="none" stroke="#00ff00" d="M114,-60.2384C114,-67.7614 114,-76.8182 114,-85.8267"/>
<polygon fill="#00ff00" stroke="#00ff00" points="110.5001,-85.8927 114,-95.8927 117.5001,-85.8927 110.5001,-85.8927"/>
</g>
<!-- n5 -->
<g id="node9" class="node">
<title>n5</title>
<path fill="#ffffff" stroke="#1b9e77" stroke-width="2" d="M1419,-939.2C1419,-939.2 1247,-939.2 1247,-939.2 1241,-939.2 1235,-933.2 1235,-927.2 1235,-927.2 1235,-899.2 1235,-899.2 1235,-893.2 1241,-887.2 1247,-887.2 1247,-887.2 1419,-887.2 1419,-887.2 1425,-887.2 1431,-893.2 1431,-899.2 1431,-899.2 1431,-927.2 1431,-927.2 1431,-933.2 1425,-939.2 1419,-939.2"/>
<text text-anchor="start" x="1311.329" y="-925.2" font-family="arial" font-weight="bold" font-size="10.00" fill="#000000">Extinction</text>
<text text-anchor="start" x="1260.203" y="-908.2" font-family="arial" font-size="10.00" fill="#000000">Das Resultat kann sein, dass die</text>
<text text-anchor="start" x="1267.708" y="-896.2" font-family="arial" font-size="10.00" fill="#000000"> Menschheit ausgerottet wird.</text>
</g>
<!-- n4 -->
<g id="node43" class="node">
<title>n4</title>
<path fill="#ffffff" stroke="#1b9e77" stroke-width="2" d="M628,-1013.6C628,-1013.6 456,-1013.6 456,-1013.6 450,-1013.6 444,-1007.6 444,-1001.6 444,-1001.6 444,-989.6 444,-989.6 444,-983.6 450,-977.6 456,-977.6 456,-977.6 628,-977.6 628,-977.6 634,-977.6 640,-983.6 640,-989.6 640,-989.6 640,-1001.6 640,-1001.6 640,-1007.6 634,-1013.6 628,-1013.6"/>
<text text-anchor="start" x="479.773" y="-993.6" font-family="arial" font-weight="bold" font-size="10.00" fill="#000000">KI&#45;Entwicklung ist gefährlich</text>
</g>
<!-- n5&#45;&gt;n4 -->
<g id="edge1" class="edge">
<title>n5&#45;&gt;n4</title>
<path fill="none" stroke="#00ff00" d="M1234.8169,-923.4279C1086.0322,-938.9271 804.4802,-968.2569 650.0551,-984.3437"/>
<polygon fill="#00ff00" stroke="#00ff00" points="649.6535,-980.8665 640.07,-985.3839 650.3789,-987.8288 649.6535,-980.8665"/>
</g>
<!-- n14 -->
<g id="node10" class="node">
<title>n14</title>
<path fill="#ffffff" stroke="#1b9e77" stroke-width="2" d="M848,-822.8C848,-822.8 676,-822.8 676,-822.8 670,-822.8 664,-816.8 664,-810.8 664,-810.8 664,-798.8 664,-798.8 664,-792.8 670,-786.8 676,-786.8 676,-786.8 848,-786.8 848,-786.8 854,-786.8 860,-792.8 860,-798.8 860,-798.8 860,-810.8 860,-810.8 860,-816.8 854,-822.8 848,-822.8"/>
<text text-anchor="start" x="749.507" y="-802.8" font-family="arial" font-weight="bold" font-size="10.00" fill="#000000">Crisis</text>
</g>
<!-- n14&#45;&gt;n5 -->
<g id="edge9" class="edge">
<title>n14&#45;&gt;n5</title>
<path fill="none" stroke="#00ff00" d="M780.4492,-822.9135C799.9178,-840.756 832.3861,-867.0507 866,-879.2 898.7746,-891.0459 1097.1824,-902.2776 1224.6194,-908.4027"/>
<polygon fill="#00ff00" stroke="#00ff00" points="1224.6565,-911.9084 1234.812,-908.889 1224.9902,-904.9163 1224.6565,-911.9084"/>
</g>
<!-- n15 -->
<g id="node11" class="node">
<title>n15</title>
<path fill="#ffffff" stroke="#1b9e77" stroke-width="2" d="M2313,-822.8C2313,-822.8 2141,-822.8 2141,-822.8 2135,-822.8 2129,-816.8 2129,-810.8 2129,-810.8 2129,-798.8 2129,-798.8 2129,-792.8 2135,-786.8 2141,-786.8 2141,-786.8 2313,-786.8 2313,-786.8 2319,-786.8 2325,-792.8 2325,-798.8 2325,-798.8 2325,-810.8 2325,-810.8 2325,-816.8 2319,-822.8 2313,-822.8"/>
<text text-anchor="start" x="2172.271" y="-802.8" font-family="arial" font-weight="bold" font-size="10.00" fill="#000000">Maglinant Failure Modes</text>
</g>
<!-- n15&#45;&gt;n5 -->
<g id="edge10" class="edge">
<title>n15&#45;&gt;n5</title>
<path fill="none" stroke="#00ff00" d="M2128.9327,-819.8311C2022.1323,-835.8868 1846.1932,-861.4199 1694,-879.2 1609.2019,-889.1066 1512.9339,-898.0591 1441.1479,-904.288"/>
<polygon fill="#00ff00" stroke="#00ff00" points="1440.8465,-900.8009 1431.1848,-905.1487 1441.449,-907.7749 1440.8465,-900.8009"/>
</g>
<!-- n29 -->
<g id="node12" class="node">
<title>n29</title>
<path fill="#1b9e77" stroke="#000000" d="M1658,-822.8C1658,-822.8 1486,-822.8 1486,-822.8 1480,-822.8 1474,-816.8 1474,-810.8 1474,-810.8 1474,-798.8 1474,-798.8 1474,-792.8 1480,-786.8 1486,-786.8 1486,-786.8 1658,-786.8 1658,-786.8 1664,-786.8 1670,-792.8 1670,-798.8 1670,-798.8 1670,-810.8 1670,-810.8 1670,-816.8 1664,-822.8 1658,-822.8"/>
<text text-anchor="start" x="1550.329" y="-802.8" font-family="arial" font-weight="bold" font-size="10.00" fill="#000000">Extinction</text>
</g>
<!-- n29&#45;&gt;n5 -->
<g id="edge21" class="edge">
<title>n29&#45;&gt;n5</title>
<path fill="none" stroke="#00ff00" d="M1532.2339,-822.8438C1499.0224,-837.9127 1450.4262,-859.9599 1408,-879.2 1405.3756,-880.3901 1402.6996,-881.6036 1399.9963,-882.8294"/>
<polygon fill="#00ff00" stroke="#00ff00" points="1398.3976,-879.7113 1390.7354,-887.0285 1401.2883,-886.0865 1398.3976,-879.7113"/>
</g>
<!-- n8 -->
<g id="node13" class="node">
<title>n8</title>
<path fill="#ffffff" stroke="#1b9e77" stroke-width="2" d="M1775,-584C1775,-584 1603,-584 1603,-584 1597,-584 1591,-578 1591,-572 1591,-572 1591,-532 1591,-532 1591,-526 1597,-520 1603,-520 1603,-520 1775,-520 1775,-520 1781,-520 1787,-526 1787,-532 1787,-532 1787,-572 1787,-572 1787,-578 1781,-584 1775,-584"/>
<text text-anchor="start" x="1650.6525" y="-570" font-family="arial" font-weight="bold" font-size="10.00" fill="#000000">Zukunft gestalten</text>
<text text-anchor="start" x="1611.761" y="-553" font-family="arial" font-size="10.00" fill="#000000">Die erste Superintelligenz kann die</text>
<text text-anchor="start" x="1616.4695" y="-541" font-family="arial" font-size="10.00" fill="#000000"> Zukunft jeden Lebens auf Erden</text>
<text text-anchor="start" x="1665.935" y="-529" font-family="arial" font-size="10.00" fill="#000000"> gestalten.</text>
</g>
<!-- n8&#45;&gt;n5 -->
<g id="edge4" class="edge">
<title>n8&#45;&gt;n5</title>
<path fill="none" stroke="#00ff00" d="M1700.1449,-584.0857C1720.5181,-649.2571 1755.0667,-797.8256 1679,-879.2 1662.8276,-896.5009 1536.4392,-905.3675 1441.0535,-909.6389"/>
<polygon fill="#00ff00" stroke="#00ff00" points="1440.8873,-906.1427 1431.0493,-910.0752 1441.1924,-913.136 1440.8873,-906.1427"/>
</g>
<!-- n8&#45;&gt;n29 -->
<g id="edge39" class="edge">
<title>n8&#45;&gt;n29</title>
<path fill="none" stroke="#00ff00" d="M1674.1819,-584.0173C1650.9894,-634.1288 1606.5157,-730.2226 1584.7008,-777.3575"/>
<polygon fill="#00ff00" stroke="#00ff00" points="1581.4294,-776.093 1580.4055,-786.6383 1587.7821,-779.0332 1581.4294,-776.093"/>
</g>
<!-- n10 -->
<g id="node23" class="node">
<title>n10</title>
<path fill="#ffffff" stroke="#1b9e77" stroke-width="2" d="M2206,-722.4C2206,-722.4 2034,-722.4 2034,-722.4 2028,-722.4 2022,-716.4 2022,-710.4 2022,-710.4 2022,-634.4 2022,-634.4 2022,-628.4 2028,-622.4 2034,-622.4 2034,-622.4 2206,-622.4 2206,-622.4 2212,-622.4 2218,-628.4 2218,-634.4 2218,-634.4 2218,-710.4 2218,-710.4 2218,-716.4 2212,-722.4 2206,-722.4"/>
<text text-anchor="start" x="2096.67" y="-708.4" font-family="arial" font-weight="bold" font-size="10.00" fill="#000000">Überfülle</text>
<text text-anchor="start" x="2035.538" y="-691.4" font-family="arial" font-size="10.00" fill="#000000">Eine Superintelligenz kann weite Teile</text>
<text text-anchor="start" x="2048.048" y="-679.4" font-family="arial" font-size="10.00" fill="#000000"> des erreichbaren Universums in</text>
<text text-anchor="start" x="2039.161" y="-667.4" font-family="arial" font-size="10.00" fill="#000000"> Infrastruktur im Service eines Zieles</text>
<text text-anchor="start" x="2033.867" y="-655.4" font-family="arial" font-size="10.00" fill="#000000"> umwandeln und dabei das Realisieren</text>
<text text-anchor="start" x="2033.0355" y="-643.4" font-family="arial" font-size="10.00" fill="#000000"> menschlichen axiologischen Potentials</text>
<text text-anchor="start" x="2093.6055" y="-631.4" font-family="arial" font-size="10.00" fill="#000000"> verhindern.</text>
</g>
<!-- n8&#45;&gt;n10 -->
<g id="edge12" class="edge">
<title>n8&#45;&gt;n10</title>
<path fill="none" stroke="#00ff00" d="M1787.1594,-566.5229C1850.7544,-577.4324 1935.1253,-594.729 2012.0941,-620.4458"/>
<polygon fill="#00ff00" stroke="#00ff00" points="2011.3327,-623.8838 2021.9271,-623.7919 2013.5878,-617.257 2011.3327,-623.8838"/>
</g>
<!-- n16 -->
<g id="node14" class="node">
<title>n16</title>
<path fill="#ffffff" stroke="#1b9e77" stroke-width="2" d="M1986,-154C1986,-154 1814,-154 1814,-154 1808,-154 1802,-148 1802,-142 1802,-142 1802,-114 1802,-114 1802,-108 1808,-102 1814,-102 1814,-102 1986,-102 1986,-102 1992,-102 1998,-108 1998,-114 1998,-114 1998,-142 1998,-142 1998,-148 1992,-154 1986,-154"/>
<text text-anchor="start" x="1859.992" y="-140" font-family="arial" font-weight="bold" font-size="10.00" fill="#000000">Rapide Emergenz</text>
<text text-anchor="start" x="1818.8765" y="-123" font-family="arial" font-size="10.00" fill="#000000">Die Emergenz einer Superintelligenz</text>
<text text-anchor="start" x="1851.6505" y="-111" font-family="arial" font-size="10.00" fill="#000000"> kann rapide erfolgen.</text>
</g>
<!-- n31 -->
<g id="node18" class="node">
<title>n31</title>
<path fill="#1b9e77" stroke="#000000" d="M1986,-279.2C1986,-279.2 1814,-279.2 1814,-279.2 1808,-279.2 1802,-273.2 1802,-267.2 1802,-267.2 1802,-255.2 1802,-255.2 1802,-249.2 1808,-243.2 1814,-243.2 1814,-243.2 1986,-243.2 1986,-243.2 1992,-243.2 1998,-249.2 1998,-255.2 1998,-255.2 1998,-267.2 1998,-267.2 1998,-273.2 1992,-279.2 1986,-279.2"/>
<text text-anchor="start" x="1854.9945" y="-259.2" font-family="arial" font-weight="bold" font-size="10.00" fill="#000000">Strategischer Vorteil</text>
</g>
<!-- n16&#45;&gt;n31 -->
<g id="edge44" class="edge">
<title>n16&#45;&gt;n31</title>
<path fill="none" stroke="#00ff00" d="M1900,-154.316C1900,-176.9624 1900,-209.5627 1900,-232.7953"/>
<polygon fill="#00ff00" stroke="#00ff00" points="1896.5001,-233.0518 1900,-243.0519 1903.5001,-233.0519 1896.5001,-233.0518"/>
</g>
<!-- n17 -->
<g id="node15" class="node">
<title>n17</title>
<path fill="#ffffff" stroke="#1b9e77" stroke-width="2" d="M1986,-387.6C1986,-387.6 1814,-387.6 1814,-387.6 1808,-387.6 1802,-381.6 1802,-375.6 1802,-375.6 1802,-335.6 1802,-335.6 1802,-329.6 1808,-323.6 1814,-323.6 1814,-323.6 1986,-323.6 1986,-323.6 1992,-323.6 1998,-329.6 1998,-335.6 1998,-335.6 1998,-375.6 1998,-375.6 1998,-381.6 1992,-387.6 1986,-387.6"/>
<text text-anchor="start" x="1854.9945" y="-373.6" font-family="arial" font-weight="bold" font-size="10.00" fill="#000000">Strategischer Vorteil</text>
<text text-anchor="start" x="1824.431" y="-356.6" font-family="arial" font-size="10.00" fill="#000000">Die erste Superintelligenz gewinnt</text>
<text text-anchor="start" x="1818.58" y="-344.6" font-family="arial" font-size="10.00" fill="#000000"> einen entscheidenden strategischen</text>
<text text-anchor="start" x="1883.0545" y="-332.6" font-family="arial" font-size="10.00" fill="#000000"> Vorteil.</text>
</g>
<!-- n33 -->
<g id="node20" class="node">
<title>n33</title>
<path fill="#1b9e77" stroke="#000000" d="M1775,-473.6C1775,-473.6 1603,-473.6 1603,-473.6 1597,-473.6 1591,-467.6 1591,-461.6 1591,-461.6 1591,-449.6 1591,-449.6 1591,-443.6 1597,-437.6 1603,-437.6 1603,-437.6 1775,-437.6 1775,-437.6 1781,-437.6 1787,-443.6 1787,-449.6 1787,-449.6 1787,-461.6 1787,-461.6 1787,-467.6 1781,-473.6 1775,-473.6"/>
<text text-anchor="start" x="1650.6525" y="-453.6" font-family="arial" font-weight="bold" font-size="10.00" fill="#000000">Zukunft gestalten</text>
</g>
<!-- n17&#45;&gt;n33 -->
<g id="edge45" class="edge">
<title>n17&#45;&gt;n33</title>
<path fill="none" stroke="#00ff00" d="M1832.3676,-387.6533C1801.0695,-402.4865 1764.6448,-419.7494 1736.3422,-433.1629"/>
<polygon fill="#00ff00" stroke="#00ff00" points="1734.612,-430.1097 1727.0745,-437.5552 1737.61,-436.4352 1734.612,-430.1097"/>
</g>
<!-- n37 -->
<g id="node26" class="node">
<title>n37</title>
<path fill="#1b9e77" stroke="#000000" d="M2637,-570C2637,-570 2465,-570 2465,-570 2459,-570 2453,-564 2453,-558 2453,-558 2453,-546 2453,-546 2453,-540 2459,-534 2465,-534 2465,-534 2637,-534 2637,-534 2643,-534 2649,-540 2649,-546 2649,-546 2649,-558 2649,-558 2649,-564 2643,-570 2637,-570"/>
<text text-anchor="start" x="2509.883" y="-550" font-family="arial" font-weight="bold" font-size="10.00" fill="#000000">Global Destruction</text>
</g>
<!-- n17&#45;&gt;n37 -->
<g id="edge46" class="edge">
<title>n17&#45;&gt;n37</title>
<path fill="none" stroke="#00ff00" d="M1998.1661,-385.2157C2131.0456,-425.3041 2364.8824,-495.8502 2481.207,-530.9442"/>
<polygon fill="#00ff00" stroke="#00ff00" points="2480.4885,-534.3832 2491.0732,-533.9207 2482.5104,-527.6815 2480.4885,-534.3832"/>
</g>
<!-- n18 -->
<g id="node16" class="node">
<title>n18</title>
<path fill="#ffffff" stroke="#1b9e77" stroke-width="2" d="M1772,-393.6C1772,-393.6 1600,-393.6 1600,-393.6 1594,-393.6 1588,-387.6 1588,-381.6 1588,-381.6 1588,-329.6 1588,-329.6 1588,-323.6 1594,-317.6 1600,-317.6 1600,-317.6 1772,-317.6 1772,-317.6 1778,-317.6 1784,-323.6 1784,-329.6 1784,-329.6 1784,-381.6 1784,-381.6 1784,-387.6 1778,-393.6 1772,-393.6"/>
<text text-anchor="start" x="1661.2765" y="-379.6" font-family="arial" font-weight="bold" font-size="10.00" fill="#000000">Singularität</text>
<text text-anchor="start" x="1610.9805" y="-362.6" font-family="arial" font-size="10.00" fill="#000000">Eine Superintelligenz, welche den</text>
<text text-anchor="start" x="1599.0365" y="-350.6" font-family="arial" font-size="10.00" fill="#000000"> Wachstum der Kapazitäten vereinfacht</text>
<text text-anchor="start" x="1601.8125" y="-338.6" font-family="arial" font-size="10.00" fill="#000000"> und die Diffusionsrate reduziert, kann</text>
<text text-anchor="start" x="1627.3795" y="-326.6" font-family="arial" font-size="10.00" fill="#000000"> eine Singularität erstellen.</text>
</g>
<!-- n18&#45;&gt;n33 -->
<g id="edge47" class="edge">
<title>n18&#45;&gt;n33</title>
<path fill="none" stroke="#00ff00" d="M1687.1427,-393.691C1687.477,-404.8335 1687.8364,-416.8139 1688.1492,-427.2391"/>
<polygon fill="#00ff00" stroke="#00ff00" points="1684.6568,-427.5495 1688.4552,-437.44 1691.6537,-427.3395 1684.6568,-427.5495"/>
</g>
<!-- n30 -->
<g id="node17" class="node">
<title>n30</title>
<path fill="#1b9e77" stroke="#000000" d="M1986,-60C1986,-60 1814,-60 1814,-60 1808,-60 1802,-54 1802,-48 1802,-48 1802,-36 1802,-36 1802,-30 1808,-24 1814,-24 1814,-24 1986,-24 1986,-24 1992,-24 1998,-30 1998,-36 1998,-36 1998,-48 1998,-48 1998,-54 1992,-60 1986,-60"/>
<text text-anchor="start" x="1859.992" y="-40" font-family="arial" font-weight="bold" font-size="10.00" fill="#000000">Rapide Emergenz</text>
</g>
<!-- n30&#45;&gt;n16 -->
<g id="edge22" class="edge">
<title>n30&#45;&gt;n16</title>
<path fill="none" stroke="#00ff00" d="M1900,-60.2384C1900,-69.4301 1900,-80.9116 1900,-91.7969"/>
<polygon fill="#00ff00" stroke="#00ff00" points="1896.5001,-91.9564 1900,-101.9565 1903.5001,-91.9565 1896.5001,-91.9564"/>
</g>
<!-- n31&#45;&gt;n17 -->
<g id="edge23" class="edge">
<title>n31&#45;&gt;n17</title>
<path fill="none" stroke="#00ff00" d="M1900,-279.4013C1900,-289.015 1900,-301.2493 1900,-313.0866"/>
<polygon fill="#00ff00" stroke="#00ff00" points="1896.5001,-313.3109 1900,-323.3109 1903.5001,-313.311 1896.5001,-313.3109"/>
</g>
<!-- n32 -->
<g id="node19" class="node">
<title>n32</title>
<path fill="#1b9e77" stroke="#000000" d="M1772,-279.2C1772,-279.2 1600,-279.2 1600,-279.2 1594,-279.2 1588,-273.2 1588,-267.2 1588,-267.2 1588,-255.2 1588,-255.2 1588,-249.2 1594,-243.2 1600,-243.2 1600,-243.2 1772,-243.2 1772,-243.2 1778,-243.2 1784,-249.2 1784,-255.2 1784,-255.2 1784,-267.2 1784,-267.2 1784,-273.2 1778,-279.2 1772,-279.2"/>
<text text-anchor="start" x="1661.2765" y="-259.2" font-family="arial" font-weight="bold" font-size="10.00" fill="#000000">Singularität</text>
</g>
<!-- n32&#45;&gt;n18 -->
<g id="edge24" class="edge">
<title>n32&#45;&gt;n18</title>
<path fill="none" stroke="#00ff00" d="M1686,-279.4013C1686,-287.4337 1686,-297.2954 1686,-307.2265"/>
<polygon fill="#00ff00" stroke="#00ff00" points="1682.5001,-307.527 1686,-317.527 1689.5001,-307.527 1682.5001,-307.527"/>
</g>
<!-- n33&#45;&gt;n8 -->
<g id="edge25" class="edge">
<title>n33&#45;&gt;n8</title>
<path fill="none" stroke="#00ff00" d="M1689,-473.7321C1689,-483.8732 1689,-496.971 1689,-509.5405"/>
<polygon fill="#00ff00" stroke="#00ff00" points="1685.5001,-509.8981 1689,-519.8981 1692.5001,-509.8981 1685.5001,-509.8981"/>
</g>
<!-- n9 -->
<g id="node21" class="node">
<title>n9</title>
<path fill="#ffffff" stroke="#1b9e77" stroke-width="2" d="M1539,-481.6C1539,-481.6 1367,-481.6 1367,-481.6 1361,-481.6 1355,-475.6 1355,-469.6 1355,-469.6 1355,-441.6 1355,-441.6 1355,-435.6 1361,-429.6 1367,-429.6 1367,-429.6 1539,-429.6 1539,-429.6 1545,-429.6 1551,-435.6 1551,-441.6 1551,-441.6 1551,-469.6 1551,-469.6 1551,-475.6 1545,-481.6 1539,-481.6"/>
<text text-anchor="start" x="1406.049" y="-467.6" font-family="arial" font-weight="bold" font-size="10.00" fill="#000000">Nicht&#45;anthropomorph</text>
<text text-anchor="start" x="1393.817" y="-450.6" font-family="arial" font-size="10.00" fill="#000000">Eine Superintelligenz kann</text>
<text text-anchor="start" x="1373.8115" y="-438.6" font-family="arial" font-size="10.00" fill="#000000"> nicht&#45;anthropomorphe Ziele haben.</text>
</g>
<!-- n9&#45;&gt;n5 -->
<g id="edge5" class="edge">
<title>n9&#45;&gt;n5</title>
<path fill="none" stroke="#00ff00" d="M1381.6174,-481.6556C1365.1674,-491.144 1349.6753,-503.6857 1340,-520 1322.0983,-550.1856 1328.437,-785.5238 1331.626,-877.0019"/>
<polygon fill="#00ff00" stroke="#00ff00" points="1328.1344,-877.3005 1331.9883,-887.1695 1335.1299,-877.0512 1328.1344,-877.3005"/>
</g>
<!-- n9&#45;&gt;n29 -->
<g id="edge40" class="edge">
<title>n9&#45;&gt;n29</title>
<path fill="none" stroke="#00ff00" d="M1524.3466,-481.677C1540.7968,-491.1652 1556.2981,-503.7015 1566,-520 1578.8499,-541.5869 1575.0815,-708.3213 1572.9799,-776.1956"/>
<polygon fill="#00ff00" stroke="#00ff00" points="1569.4696,-776.4631 1572.6476,-786.57 1576.466,-776.6873 1569.4696,-776.4631"/>
</g>
<!-- n35 -->
<g id="node30" class="node">
<title>n35</title>
<path fill="#1b9e77" stroke="#000000" d="M1539,-570C1539,-570 1367,-570 1367,-570 1361,-570 1355,-564 1355,-558 1355,-558 1355,-546 1355,-546 1355,-540 1361,-534 1367,-534 1367,-534 1539,-534 1539,-534 1545,-534 1551,-540 1551,-546 1551,-546 1551,-558 1551,-558 1551,-564 1545,-570 1539,-570"/>
<text text-anchor="start" x="1378.263" y="-550" font-family="arial" font-weight="bold" font-size="10.00" fill="#000000">Instrumental Convergence Thesis</text>
</g>
<!-- n9&#45;&gt;n35 -->
<g id="edge41" class="edge">
<title>n9&#45;&gt;n35</title>
<path fill="none" stroke="#00ff00" d="M1453,-481.6872C1453,-494.7107 1453,-510.4841 1453,-523.7883"/>
<polygon fill="#00ff00" stroke="#00ff00" points="1449.5001,-523.8289 1453,-533.829 1456.5001,-523.829 1449.5001,-523.8289"/>
</g>
<!-- n34 -->
<g id="node22" class="node">
<title>n34</title>
<path fill="#1b9e77" stroke="#000000" d="M1539,-373.6C1539,-373.6 1367,-373.6 1367,-373.6 1361,-373.6 1355,-367.6 1355,-361.6 1355,-361.6 1355,-349.6 1355,-349.6 1355,-343.6 1361,-337.6 1367,-337.6 1367,-337.6 1539,-337.6 1539,-337.6 1545,-337.6 1551,-343.6 1551,-349.6 1551,-349.6 1551,-361.6 1551,-361.6 1551,-367.6 1545,-373.6 1539,-373.6"/>
<text text-anchor="start" x="1407.1585" y="-353.6" font-family="arial" font-weight="bold" font-size="10.00" fill="#000000">Orthogonality Thesis</text>
</g>
<!-- n34&#45;&gt;n9 -->
<g id="edge26" class="edge">
<title>n34&#45;&gt;n9</title>
<path fill="none" stroke="#00ff00" d="M1453,-373.9415C1453,-386.5859 1453,-403.8189 1453,-419.1955"/>
<polygon fill="#00ff00" stroke="#00ff00" points="1449.5001,-419.4649 1453,-429.465 1456.5001,-419.465 1449.5001,-419.4649"/>
</g>
<!-- n10&#45;&gt;n15 -->
<g id="edge13" class="edge">
<title>n10&#45;&gt;n15</title>
<path fill="none" stroke="#00ff00" d="M2160.4521,-722.4548C2175.9741,-741.6614 2193.0567,-762.7991 2206.0277,-778.8492"/>
<polygon fill="#00ff00" stroke="#00ff00" points="2203.3981,-781.1637 2212.4058,-786.7414 2208.8424,-776.7638 2203.3981,-781.1637"/>
</g>
<!-- n10&#45;&gt;n29 -->
<g id="edge42" class="edge">
<title>n10&#45;&gt;n29</title>
<path fill="none" stroke="#00ff00" d="M2067.7119,-722.5081C2052.707,-734.2923 2035.6094,-745.5245 2018,-752.8 1958.9031,-777.2163 1792.399,-791.6934 1680.4121,-798.9433"/>
<polygon fill="#00ff00" stroke="#00ff00" points="1680.1828,-795.4507 1670.4258,-799.5801 1680.6283,-802.4366 1680.1828,-795.4507"/>
</g>
<!-- n19 -->
<g id="node24" class="node">
<title>n19</title>
<path fill="#ffffff" stroke="#1b9e77" stroke-width="2" d="M2646,-722.4C2646,-722.4 2462,-722.4 2462,-722.4 2456,-722.4 2450,-716.4 2450,-710.4 2450,-710.4 2450,-634.4 2450,-634.4 2450,-628.4 2456,-622.4 2462,-622.4 2462,-622.4 2646,-622.4 2646,-622.4 2652,-622.4 2658,-628.4 2658,-634.4 2658,-634.4 2658,-710.4 2658,-710.4 2658,-716.4 2652,-722.4 2646,-722.4"/>
<text text-anchor="start" x="2512.883" y="-708.4" font-family="arial" font-weight="bold" font-size="10.00" fill="#000000">Global Destruction</text>
<text text-anchor="start" x="2459.902" y="-691.4" font-family="arial" font-size="10.00" fill="#000000">Der Schaden eines bösartigen Versagens</text>
<text text-anchor="start" x="2476.575" y="-679.4" font-family="arial" font-size="10.00" fill="#000000"> kann zur globalen Zerstörung des</text>
<text text-anchor="start" x="2467.0355" y="-667.4" font-family="arial" font-size="10.00" fill="#000000"> menschlichen axiologischen Potentials</text>
<text text-anchor="start" x="2473.982" y="-655.4" font-family="arial" font-size="10.00" fill="#000000"> führen &#45; eine Zukunft, die leer von</text>
<text text-anchor="start" x="2480.945" y="-643.4" font-family="arial" font-size="10.00" fill="#000000"> allem ist, für das wir Grund zur</text>
<text text-anchor="start" x="2502.8745" y="-631.4" font-family="arial" font-size="10.00" fill="#000000"> Wertschätzung haben.</text>
</g>
<!-- n19&#45;&gt;n15 -->
<g id="edge11" class="edge">
<title>n19&#45;&gt;n15</title>
<path fill="none" stroke="#00ff00" d="M2492.3512,-722.5979C2476.3467,-733.8108 2458.6306,-744.7486 2441,-752.8 2408.0004,-767.87 2370.0648,-778.9123 2335.3853,-786.8424"/>
<polygon fill="#00ff00" stroke="#00ff00" points="2334.2216,-783.5155 2325.2185,-789.1007 2335.7395,-790.349 2334.2216,-783.5155"/>
</g>
<!-- n20 -->
<g id="node25" class="node">
<title>n20</title>
<path fill="#ffffff" stroke="#1b9e77" stroke-width="2" d="M2420,-698.4C2420,-698.4 2248,-698.4 2248,-698.4 2242,-698.4 2236,-692.4 2236,-686.4 2236,-686.4 2236,-658.4 2236,-658.4 2236,-652.4 2242,-646.4 2248,-646.4 2248,-646.4 2420,-646.4 2420,-646.4 2426,-646.4 2432,-652.4 2432,-658.4 2432,-658.4 2432,-686.4 2432,-686.4 2432,-692.4 2426,-698.4 2420,-698.4"/>
<text text-anchor="start" x="2308.45" y="-684.4" font-family="arial" font-weight="bold" font-size="10.00" fill="#000000">Mind Crime</text>
<text text-anchor="start" x="2254.0925" y="-667.4" font-family="arial" font-size="10.00" fill="#000000">Die Zerstörung einer Simulation mit</text>
<text text-anchor="start" x="2245.6465" y="-655.4" font-family="arial" font-size="10.00" fill="#000000"> hohem moralischen Status ist Genozid.</text>
</g>
<!-- n20&#45;&gt;n15 -->
<g id="edge14" class="edge">
<title>n20&#45;&gt;n15</title>
<path fill="none" stroke="#00ff00" d="M2312.8602,-698.558C2294.0922,-721.7813 2266.8135,-755.5355 2248.0673,-778.7317"/>
<polygon fill="#00ff00" stroke="#00ff00" points="2245.1419,-776.7832 2241.5785,-786.7609 2250.5862,-781.1831 2245.1419,-776.7832"/>
</g>
<!-- n37&#45;&gt;n19 -->
<g id="edge29" class="edge">
<title>n37&#45;&gt;n19</title>
<path fill="none" stroke="#00ff00" d="M2551.4491,-570.0251C2551.7321,-581.3797 2552.1152,-596.757 2552.4985,-612.1396"/>
<polygon fill="#00ff00" stroke="#00ff00" points="2549.0012,-612.297 2552.7493,-622.2066 2555.9991,-612.1225 2549.0012,-612.297"/>
</g>
<!-- n38 -->
<g id="node27" class="node">
<title>n38</title>
<path fill="#1b9e77" stroke="#000000" d="M2206,-570C2206,-570 2034,-570 2034,-570 2028,-570 2022,-564 2022,-558 2022,-558 2022,-546 2022,-546 2022,-540 2028,-534 2034,-534 2034,-534 2206,-534 2206,-534 2212,-534 2218,-540 2218,-546 2218,-546 2218,-558 2218,-558 2218,-564 2212,-570 2206,-570"/>
<text text-anchor="start" x="2068.0455" y="-550" font-family="arial" font-weight="bold" font-size="10.00" fill="#000000">Infrastructure Profusion</text>
</g>
<!-- n38&#45;&gt;n10 -->
<g id="edge30" class="edge">
<title>n38&#45;&gt;n10</title>
<path fill="none" stroke="#00ff00" d="M2120,-570.0251C2120,-581.3797 2120,-596.757 2120,-612.1396"/>
<polygon fill="#00ff00" stroke="#00ff00" points="2116.5001,-612.2066 2120,-622.2066 2123.5001,-612.2067 2116.5001,-612.2066"/>
</g>
<!-- n39 -->
<g id="node28" class="node">
<title>n39</title>
<path fill="#1b9e77" stroke="#000000" d="M2420,-570C2420,-570 2248,-570 2248,-570 2242,-570 2236,-564 2236,-558 2236,-558 2236,-546 2236,-546 2236,-540 2242,-534 2248,-534 2248,-534 2420,-534 2420,-534 2426,-534 2432,-540 2432,-546 2432,-546 2432,-558 2432,-558 2432,-564 2426,-570 2420,-570"/>
<text text-anchor="start" x="2308.45" y="-550" font-family="arial" font-weight="bold" font-size="10.00" fill="#000000">Mind Crime</text>
</g>
<!-- n39&#45;&gt;n20 -->
<g id="edge31" class="edge">
<title>n39&#45;&gt;n20</title>
<path fill="none" stroke="#00ff00" d="M2334,-570.0251C2334,-587.3888 2334,-614.1598 2334,-635.9711"/>
<polygon fill="#00ff00" stroke="#00ff00" points="2330.5001,-636.217 2334,-646.217 2337.5001,-636.217 2330.5001,-636.217"/>
</g>
<!-- n11 -->
<g id="node29" class="node">
<title>n11</title>
<path fill="#ffffff" stroke="#1b9e77" stroke-width="2" d="M1542.5,-698.4C1542.5,-698.4 1363.5,-698.4 1363.5,-698.4 1357.5,-698.4 1351.5,-692.4 1351.5,-686.4 1351.5,-686.4 1351.5,-658.4 1351.5,-658.4 1351.5,-652.4 1357.5,-646.4 1363.5,-646.4 1363.5,-646.4 1542.5,-646.4 1542.5,-646.4 1548.5,-646.4 1554.5,-652.4 1554.5,-658.4 1554.5,-658.4 1554.5,-686.4 1554.5,-686.4 1554.5,-692.4 1548.5,-698.4 1542.5,-698.4"/>
<text text-anchor="start" x="1400.158" y="-684.4" font-family="arial" font-weight="bold" font-size="10.00" fill="#000000">Menschliche Resourcen</text>
<text text-anchor="start" x="1361.8075" y="-667.4" font-family="arial" font-size="10.00" fill="#000000">Eine Superintelligenz kann die Menschen</text>
<text text-anchor="start" x="1361.8145" y="-655.4" font-family="arial" font-size="10.00" fill="#000000"> als physikalische Resourcen benützen.</text>
</g>
<!-- n11&#45;&gt;n5 -->
<g id="edge6" class="edge">
<title>n11&#45;&gt;n5</title>
<path fill="none" stroke="#00ff00" d="M1439.9295,-698.6282C1418.2891,-742.0532 1374.9948,-828.9304 1350.6572,-877.768"/>
<polygon fill="#00ff00" stroke="#00ff00" points="1347.3821,-876.4928 1346.0544,-887.0041 1353.6473,-879.615 1347.3821,-876.4928"/>
</g>
<!-- n11&#45;&gt;n29 -->
<g id="edge43" class="edge">
<title>n11&#45;&gt;n29</title>
<path fill="none" stroke="#00ff00" d="M1476.5106,-698.558C1497.475,-721.8831 1527.9878,-755.8318 1548.8438,-779.0363"/>
<polygon fill="#00ff00" stroke="#00ff00" points="1546.4988,-781.6631 1555.7866,-786.7609 1551.705,-776.9838 1546.4988,-781.6631"/>
</g>
<!-- n35&#45;&gt;n11 -->
<g id="edge27" class="edge">
<title>n35&#45;&gt;n11</title>
<path fill="none" stroke="#00ff00" d="M1453,-570.0251C1453,-587.3888 1453,-614.1598 1453,-635.9711"/>
<polygon fill="#00ff00" stroke="#00ff00" points="1449.5001,-636.217 1453,-646.217 1456.5001,-636.217 1449.5001,-636.217"/>
</g>
<!-- n12 -->
<g id="node31" class="node">
<title>n12</title>
<path fill="#ffffff" stroke="#1b9e77" stroke-width="2" d="M1302,-848.8C1302,-848.8 1130,-848.8 1130,-848.8 1124,-848.8 1118,-842.8 1118,-836.8 1118,-836.8 1118,-772.8 1118,-772.8 1118,-766.8 1124,-760.8 1130,-760.8 1130,-760.8 1302,-760.8 1302,-760.8 1308,-760.8 1314,-766.8 1314,-772.8 1314,-772.8 1314,-836.8 1314,-836.8 1314,-842.8 1308,-848.8 1302,-848.8"/>
<text text-anchor="start" x="1205.722" y="-834.8" font-family="arial" font-weight="bold" font-size="10.00" fill="#000000">Turn</text>
<text text-anchor="start" x="1150.9895" y="-817.8" font-family="arial" font-size="10.00" fill="#000000">Eine unfreundliche KI wird ihr</text>
<text text-anchor="start" x="1150.4285" y="-805.8" font-family="arial" font-size="10.00" fill="#000000"> unfreundliches Ziel erst dann</text>
<text text-anchor="start" x="1133.4715" y="-793.8" font-family="arial" font-size="10.00" fill="#000000"> preisgeben, wenn die KI stark genug</text>
<text text-anchor="start" x="1141.818" y="-781.8" font-family="arial" font-size="10.00" fill="#000000"> ist, dass menschliche Opposition</text>
<text text-anchor="start" x="1187.1065" y="-769.8" font-family="arial" font-size="10.00" fill="#000000"> ineffektiv ist.</text>
</g>
<!-- n12&#45;&gt;n5 -->
<g id="edge7" class="edge">
<title>n12&#45;&gt;n5</title>
<path fill="none" stroke="#00ff00" d="M1263.5884,-848.8904C1274.7884,-859.2672 1286.5417,-870.1565 1297.1266,-879.9634"/>
<polygon fill="#00ff00" stroke="#00ff00" points="1294.8886,-882.6613 1304.6029,-886.8902 1299.6461,-877.5264 1294.8886,-882.6613"/>
</g>
<!-- n36 -->
<g id="node32" class="node">
<title>n36</title>
<path fill="#1b9e77" stroke="#000000" d="M1302,-690.4C1302,-690.4 1130,-690.4 1130,-690.4 1124,-690.4 1118,-684.4 1118,-678.4 1118,-678.4 1118,-666.4 1118,-666.4 1118,-660.4 1124,-654.4 1130,-654.4 1130,-654.4 1302,-654.4 1302,-654.4 1308,-654.4 1314,-660.4 1314,-666.4 1314,-666.4 1314,-678.4 1314,-678.4 1314,-684.4 1308,-690.4 1302,-690.4"/>
<text text-anchor="start" x="1166.269" y="-670.4" font-family="arial" font-weight="bold" font-size="10.00" fill="#000000">The Treacherous Turn</text>
</g>
<!-- n36&#45;&gt;n12 -->
<g id="edge28" class="edge">
<title>n36&#45;&gt;n12</title>
<path fill="none" stroke="#00ff00" d="M1216,-690.532C1216,-706.0615 1216,-729.2477 1216,-750.6841"/>
<polygon fill="#00ff00" stroke="#00ff00" points="1212.5001,-750.6997 1216,-760.6998 1219.5001,-750.6998 1212.5001,-750.6997"/>
</g>
<!-- n13 -->
<g id="node33" class="node">
<title>n13</title>
<path fill="#ffffff" stroke="#1b9e77" stroke-width="2" d="M1081.5,-830.8C1081.5,-830.8 890.5,-830.8 890.5,-830.8 884.5,-830.8 878.5,-824.8 878.5,-818.8 878.5,-818.8 878.5,-790.8 878.5,-790.8 878.5,-784.8 884.5,-778.8 890.5,-778.8 890.5,-778.8 1081.5,-778.8 1081.5,-778.8 1087.5,-778.8 1093.5,-784.8 1093.5,-790.8 1093.5,-790.8 1093.5,-818.8 1093.5,-818.8 1093.5,-824.8 1087.5,-830.8 1081.5,-830.8"/>
<text text-anchor="start" x="960.1045" y="-816.8" font-family="arial" font-weight="bold" font-size="10.00" fill="#000000">Devastation</text>
<text text-anchor="start" x="888.967" y="-799.8" font-family="arial" font-size="10.00" fill="#000000">Die Konsequenzen eines Wettrennens kann</text>
<text text-anchor="start" x="907.6845" y="-787.8" font-family="arial" font-size="10.00" fill="#000000"> zerstörende Auswirkungen haben.</text>
</g>
<!-- n13&#45;&gt;n5 -->
<g id="edge8" class="edge">
<title>n13&#45;&gt;n5</title>
<path fill="none" stroke="#00ff00" d="M1019.7533,-830.9439C1042.7938,-847.4317 1074.705,-867.7113 1106,-879.2 1127.9585,-887.2612 1177.5166,-895.0792 1224.7423,-901.1818"/>
<polygon fill="#00ff00" stroke="#00ff00" points="1224.4119,-904.6678 1234.7736,-902.4574 1225.295,-897.7238 1224.4119,-904.6678"/>
</g>
<!-- n40 -->
<g id="node34" class="node">
<title>n40</title>
<path fill="#1b9e77" stroke="#000000" d="M1072,-690.4C1072,-690.4 900,-690.4 900,-690.4 894,-690.4 888,-684.4 888,-678.4 888,-678.4 888,-666.4 888,-666.4 888,-660.4 894,-654.4 900,-654.4 900,-654.4 1072,-654.4 1072,-654.4 1078,-654.4 1084,-660.4 1084,-666.4 1084,-666.4 1084,-678.4 1084,-678.4 1084,-684.4 1078,-690.4 1072,-690.4"/>
<text text-anchor="start" x="950.9995" y="-670.4" font-family="arial" font-weight="bold" font-size="10.00" fill="#000000">Race Dynamics</text>
</g>
<!-- n40&#45;&gt;n13 -->
<g id="edge32" class="edge">
<title>n40&#45;&gt;n13</title>
<path fill="none" stroke="#00ff00" d="M986,-690.532C986,-710.4862 986,-743.082 986,-768.3637"/>
<polygon fill="#00ff00" stroke="#00ff00" points="982.5001,-768.6926 986,-778.6927 989.5001,-768.6927 982.5001,-768.6926"/>
</g>
<!-- n6 -->
<g id="node35" class="node">
<title>n6</title>
<path fill="#ffffff" stroke="#1b9e77" stroke-width="2" d="M414,-939.2C414,-939.2 234,-939.2 234,-939.2 228,-939.2 222,-933.2 222,-927.2 222,-927.2 222,-899.2 222,-899.2 222,-893.2 228,-887.2 234,-887.2 234,-887.2 414,-887.2 414,-887.2 420,-887.2 426,-893.2 426,-899.2 426,-899.2 426,-927.2 426,-927.2 426,-933.2 420,-939.2 414,-939.2"/>
<text text-anchor="start" x="304.001" y="-925.2" font-family="arial" font-weight="bold" font-size="10.00" fill="#000000">Volatilität</text>
<text text-anchor="start" x="246.0265" y="-908.2" font-family="arial" font-size="10.00" fill="#000000">KI&#45;Algorithmen können gefährliche</text>
<text text-anchor="start" x="231.7625" y="-896.2" font-family="arial" font-size="10.00" fill="#000000"> Auswirkungen für die Wirtschaft haben.</text>
</g>
<!-- n6&#45;&gt;n4 -->
<g id="edge2" class="edge">
<title>n6&#45;&gt;n4</title>
<path fill="none" stroke="#00ff00" d="M369.3692,-939.2612C389.0688,-949.7791 412.699,-961.3521 435,-969.6 439.7528,-971.3578 444.6686,-973.0304 449.6627,-974.6164"/>
<polygon fill="#00ff00" stroke="#00ff00" points="448.755,-977.9986 459.3408,-977.5597 450.7918,-971.3015 448.755,-977.9986"/>
</g>
<!-- n7 -->
<g id="node36" class="node">
<title>n7</title>
<path fill="#ffffff" stroke="#1b9e77" stroke-width="2" d="M628,-939.2C628,-939.2 456,-939.2 456,-939.2 450,-939.2 444,-933.2 444,-927.2 444,-927.2 444,-899.2 444,-899.2 444,-893.2 450,-887.2 456,-887.2 456,-887.2 628,-887.2 628,-887.2 634,-887.2 640,-893.2 640,-899.2 640,-899.2 640,-927.2 640,-927.2 640,-933.2 634,-939.2 628,-939.2"/>
<text text-anchor="start" x="508.662" y="-925.2" font-family="arial" font-weight="bold" font-size="10.00" fill="#000000">Insider Trading</text>
<text text-anchor="start" x="463.376" y="-908.2" font-family="arial" font-size="10.00" fill="#000000">KI&#45;Algorithmen führen zu unfairen</text>
<text text-anchor="start" x="487.917" y="-896.2" font-family="arial" font-size="10.00" fill="#000000"> Vorteilen an der Börse.</text>
</g>
<!-- n7&#45;&gt;n4 -->
<g id="edge3" class="edge">
<title>n7&#45;&gt;n4</title>
<path fill="none" stroke="#00ff00" d="M542,-939.2719C542,-948.2185 542,-958.2704 542,-967.3795"/>
<polygon fill="#00ff00" stroke="#00ff00" points="538.5001,-967.5169 542,-977.517 545.5001,-967.517 538.5001,-967.5169"/>
</g>
<!-- n41 -->
<g id="node37" class="node">
<title>n41</title>
<path fill="#1b9e77" stroke="#000000" d="M628,-822.8C628,-822.8 456,-822.8 456,-822.8 450,-822.8 444,-816.8 444,-810.8 444,-810.8 444,-798.8 444,-798.8 444,-792.8 450,-786.8 456,-786.8 456,-786.8 628,-786.8 628,-786.8 634,-786.8 640,-792.8 640,-798.8 640,-798.8 640,-810.8 640,-810.8 640,-816.8 634,-822.8 628,-822.8"/>
<text text-anchor="start" x="508.662" y="-802.8" font-family="arial" font-weight="bold" font-size="10.00" fill="#000000">Insider Trading</text>
</g>
<!-- n41&#45;&gt;n7 -->
<g id="edge33" class="edge">
<title>n41&#45;&gt;n7</title>
<path fill="none" stroke="#00ff00" d="M542,-823.1886C542,-837.8319 542,-858.7877 542,-876.7954"/>
<polygon fill="#00ff00" stroke="#00ff00" points="538.5001,-876.9874 542,-886.9875 545.5001,-876.9875 538.5001,-876.9874"/>
</g>
<!-- n42 -->
<g id="node38" class="node">
<title>n42</title>
<path fill="#1b9e77" stroke="#000000" d="M410,-822.8C410,-822.8 238,-822.8 238,-822.8 232,-822.8 226,-816.8 226,-810.8 226,-810.8 226,-798.8 226,-798.8 226,-792.8 232,-786.8 238,-786.8 238,-786.8 410,-786.8 410,-786.8 416,-786.8 422,-792.8 422,-798.8 422,-798.8 422,-810.8 422,-810.8 422,-816.8 416,-822.8 410,-822.8"/>
<text text-anchor="start" x="288.7225" y="-802.8" font-family="arial" font-weight="bold" font-size="10.00" fill="#000000">Market Volatility</text>
</g>
<!-- n42&#45;&gt;n6 -->
<g id="edge34" class="edge">
<title>n42&#45;&gt;n6</title>
<path fill="none" stroke="#00ff00" d="M324,-823.1886C324,-837.8319 324,-858.7877 324,-876.7954"/>
<polygon fill="#00ff00" stroke="#00ff00" points="320.5001,-876.9874 324,-886.9875 327.5001,-876.9875 320.5001,-876.9874"/>
</g>
<!-- n0 -->
<g id="node39" class="node">
<title>n0</title>
<path fill="#ffffff" stroke="#1b9e77" stroke-width="2" d="M3096,-160C3096,-160 2924,-160 2924,-160 2918,-160 2912,-154 2912,-148 2912,-148 2912,-108 2912,-108 2912,-102 2918,-96 2924,-96 2924,-96 3096,-96 3096,-96 3102,-96 3108,-102 3108,-108 3108,-108 3108,-148 3108,-148 3108,-154 3102,-160 3096,-160"/>
<text text-anchor="start" x="2996.6675" y="-146" font-family="arial" font-weight="bold" font-size="10.00" fill="#000000">Armut</text>
<text text-anchor="start" x="2936.9335" y="-129" font-family="arial" font-size="10.00" fill="#000000">Die Entwicklung von AI führt zu</text>
<text text-anchor="start" x="2922.4925" y="-117" font-family="arial" font-size="10.00" fill="#000000"> extremer Armut bei einem grossen Teil</text>
<text text-anchor="start" x="2969.253" y="-105" font-family="arial" font-size="10.00" fill="#000000"> der Bevölkerung.</text>
</g>
<!-- n21 -->
<g id="node40" class="node">
<title>n21</title>
<path fill="#1b9e77" stroke="#000000" d="M2882,-60C2882,-60 2710,-60 2710,-60 2704,-60 2698,-54 2698,-48 2698,-48 2698,-36 2698,-36 2698,-30 2704,-24 2710,-24 2710,-24 2882,-24 2882,-24 2888,-24 2894,-30 2894,-36 2894,-36 2894,-48 2894,-48 2894,-54 2888,-60 2882,-60"/>
<text text-anchor="start" x="2771.2745" y="-40" font-family="arial" font-weight="bold" font-size="10.00" fill="#000000">Power Law</text>
</g>
<!-- n21&#45;&gt;n0 -->
<g id="edge15" class="edge">
<title>n21&#45;&gt;n0</title>
<path fill="none" stroke="#00ff00" d="M2840.8614,-60.0284C2864.0955,-69.3655 2893.3115,-81.1065 2920.8946,-92.1913"/>
<polygon fill="#00ff00" stroke="#00ff00" points="2919.5913,-95.4395 2930.1752,-95.9209 2922.2016,-88.9444 2919.5913,-95.4395"/>
</g>
<!-- n22 -->
<g id="node41" class="node">
<title>n22</title>
<path fill="#1b9e77" stroke="#000000" d="M3310,-60C3310,-60 3138,-60 3138,-60 3132,-60 3126,-54 3126,-48 3126,-48 3126,-36 3126,-36 3126,-30 3132,-24 3138,-24 3138,-24 3310,-24 3310,-24 3316,-24 3322,-30 3322,-36 3322,-36 3322,-48 3322,-48 3322,-54 3316,-60 3310,-60"/>
<text text-anchor="start" x="3158.1565" y="-40" font-family="arial" font-weight="bold" font-size="10.00" fill="#000000">Technological Unemployment</text>
</g>
<!-- n22&#45;&gt;n0 -->
<g id="edge16" class="edge">
<title>n22&#45;&gt;n0</title>
<path fill="none" stroke="#00ff00" d="M3179.1386,-60.0284C3155.9045,-69.3655 3126.6885,-81.1065 3099.1054,-92.1913"/>
<polygon fill="#00ff00" stroke="#00ff00" points="3097.7984,-88.9444 3089.8248,-95.9209 3100.4087,-95.4395 3097.7984,-88.9444"/>
</g>
<!-- n23 -->
<g id="node42" class="node">
<title>n23</title>
<path fill="#1b9e77" stroke="#000000" d="M3096,-60C3096,-60 2924,-60 2924,-60 2918,-60 2912,-54 2912,-48 2912,-48 2912,-36 2912,-36 2912,-30 2918,-24 2924,-24 2924,-24 3096,-24 3096,-24 3102,-24 3108,-30 3108,-36 3108,-36 3108,-48 3108,-48 3108,-54 3102,-60 3096,-60"/>
<text text-anchor="start" x="2965.8285" y="-40" font-family="arial" font-weight="bold" font-size="10.00" fill="#000000">Android&#45;Experiment</text>
</g>
<!-- n23&#45;&gt;n0 -->
<g id="edge17" class="edge">
<title>n23&#45;&gt;n0</title>
<path fill="none" stroke="#00ff00" d="M3010,-60.2384C3010,-67.7614 3010,-76.8182 3010,-85.8267"/>
<polygon fill="#00ff00" stroke="#00ff00" points="3006.5001,-85.8927 3010,-95.8927 3013.5001,-85.8927 3006.5001,-85.8927"/>
</g>
</g>
</svg>
