
<!-- Generated by graphviz version 2.40.1 (20161225.0304)
 -->
<!-- Title: Argument Map Pages: 1 -->
<svg width="720pt" height="239pt"
 viewBox="0.00 0.00 720.00 238.88" xmlns="http://www.w3.org/2000/svg" xmlns:xlink="http://www.w3.org/1999/xlink">
<g id="graph0" class="graph" transform="scale(.8411 .8411) rotate(0) translate(4 280)">
<title>Argument Map</title>
<!-- n0 -->
<g id="node1" class="node">
<title>n0</title>
<path fill="#ffffff" stroke="#1b9e77" stroke-width="2" d="M505,-164C505,-164 333,-164 333,-164 327,-164 321,-158 321,-152 321,-152 321,-124 321,-124 321,-118 327,-112 333,-112 333,-112 505,-112 505,-112 511,-112 517,-118 517,-124 517,-124 517,-152 517,-152 517,-158 511,-164 505,-164"/>
<text text-anchor="start" x="385.3815" y="-150" font-family="arial" font-weight="bold" font-size="10.00" fill="#000000">Zentrale These</text>
<text text-anchor="start" x="333.4285" y="-133" font-family="arial" font-size="10.00" fill="#000000">Eine General AI stellt eine Gefahr für</text>
<text text-anchor="start" x="372.0435" y="-121" font-family="arial" font-size="10.00" fill="#000000"> unsere Existenz dar.</text>
</g>
<!-- n1 -->
<g id="node2" class="node">
<title>n1</title>
<path fill="#ffffff" stroke="#1b9e77" stroke-width="2" d="M184,-270C184,-270 12,-270 12,-270 6,-270 0,-264 0,-258 0,-258 0,-218 0,-218 0,-212 6,-206 12,-206 12,-206 184,-206 184,-206 190,-206 196,-212 196,-218 196,-218 196,-258 196,-258 196,-264 190,-270 184,-270"/>
<text text-anchor="start" x="76.889" y="-256" font-family="arial" font-weight="bold" font-size="10.00" fill="#000000">Neuralink</text>
<text text-anchor="start" x="17.1605" y="-239" font-family="arial" font-size="10.00" fill="#000000">Mit einem Human&#45;Machine&#45;Interface</text>
<text text-anchor="start" x="35.644" y="-227" font-family="arial" font-size="10.00" fill="#000000"> können wir &quot;along the ride&quot;</text>
<text text-anchor="start" x="19.101" y="-215" font-family="arial" font-size="10.00" fill="#000000"> mitgenommen werden mit der GAI.</text>
</g>
<!-- n0&#45;&gt;n1 -->
<g id="edge1" class="edge">
<title>n0&#45;&gt;n1</title>
<path fill="none" stroke="#00ff00" d="M324.6168,-164.0411C287.2196,-174.6987 243.9347,-187.4585 205,-200 202.2294,-200.8924 199.4225,-201.8084 196.5926,-202.7421"/>
<polygon fill="#00ff00" stroke="#00ff00" points="195.2793,-199.4906 186.9021,-205.977 197.4958,-206.1304 195.2793,-199.4906"/>
</g>
<!-- n2 -->
<g id="node3" class="node">
<title>n2</title>
<path fill="#ffffff" stroke="#1b9e77" stroke-width="2" d="M398,-276C398,-276 226,-276 226,-276 220,-276 214,-270 214,-264 214,-264 214,-212 214,-212 214,-206 220,-200 226,-200 226,-200 398,-200 398,-200 404,-200 410,-206 410,-212 410,-212 410,-264 410,-264 410,-270 404,-276 398,-276"/>
<text text-anchor="start" x="248.6675" y="-262" font-family="arial" font-weight="bold" font-size="10.00" fill="#000000">extraterrestrische Zivilisation</text>
<text text-anchor="start" x="235.332" y="-245" font-family="arial" font-size="10.00" fill="#000000">Mit der Errichtung einer Zivilisation</text>
<text text-anchor="start" x="244.764" y="-233" font-family="arial" font-size="10.00" fill="#000000"> auf dem Mars, haben wir eine</text>
<text text-anchor="start" x="240.3355" y="-221" font-family="arial" font-size="10.00" fill="#000000"> Backup&#45;Zivilisation, falls wir alle</text>
<text text-anchor="start" x="293.9385" y="-209" font-family="arial" font-size="10.00" fill="#000000"> sterben</text>
</g>
<!-- n0&#45;&gt;n2 -->
<g id="edge2" class="edge">
<title>n0&#45;&gt;n2</title>
<path fill="none" stroke="#00ff00" d="M391.1663,-164.0128C381.7988,-172.7675 371.0555,-182.8079 360.5672,-192.6101"/>
<polygon fill="#00ff00" stroke="#00ff00" points="357.9147,-190.2985 352.9985,-199.6837 362.6943,-195.4127 357.9147,-190.2985"/>
</g>
<!-- n3 -->
<g id="node4" class="node">
<title>n3</title>
<path fill="#ffffff" stroke="#1b9e77" stroke-width="2" d="M612,-276C612,-276 440,-276 440,-276 434,-276 428,-270 428,-264 428,-264 428,-212 428,-212 428,-206 434,-200 440,-200 440,-200 612,-200 612,-200 618,-200 624,-206 624,-212 624,-212 624,-264 624,-264 624,-270 618,-276 612,-276"/>
<text text-anchor="start" x="493.2155" y="-262" font-family="arial" font-weight="bold" font-size="10.00" fill="#000000">Einschränkung</text>
<text text-anchor="start" x="455.1495" y="-245" font-family="arial" font-size="10.00" fill="#000000">Staatliche oder Super&#45;staatliche</text>
<text text-anchor="start" x="449.409" y="-233" font-family="arial" font-size="10.00" fill="#000000"> Aufsichtsbehörden schränken die</text>
<text text-anchor="start" x="449.596" y="-221" font-family="arial" font-size="10.00" fill="#000000"> Entwicklung einer GAI ein, um die</text>
<text text-anchor="start" x="469.8815" y="-209" font-family="arial" font-size="10.00" fill="#000000"> Gefahren zu minimieren.</text>
</g>
<!-- n0&#45;&gt;n3 -->
<g id="edge3" class="edge">
<title>n0&#45;&gt;n3</title>
<path fill="none" stroke="#00ff00" d="M446.8337,-164.0128C456.2012,-172.7675 466.9445,-182.8079 477.4328,-192.6101"/>
<polygon fill="#00ff00" stroke="#00ff00" points="475.3057,-195.4127 485.0015,-199.6837 480.0853,-190.2985 475.3057,-195.4127"/>
</g>
<!-- n4 -->
<g id="node5" class="node">
<title>n4</title>
<path fill="#ffffff" stroke="#1b9e77" stroke-width="2" d="M836,-270C836,-270 654,-270 654,-270 648,-270 642,-264 642,-258 642,-258 642,-218 642,-218 642,-212 648,-206 654,-206 654,-206 836,-206 836,-206 842,-206 848,-212 848,-218 848,-218 848,-258 848,-258 848,-264 842,-270 836,-270"/>
<text text-anchor="start" x="673.9695" y="-256" font-family="arial" font-weight="bold" font-size="10.00" fill="#000000">Politik der gleich langen Stöcke</text>
<text text-anchor="start" x="651.9275" y="-239" font-family="arial" font-size="10.00" fill="#000000">Durch die Entwicklung einer Open&#45;Source</text>
<text text-anchor="start" x="658.0285" y="-227" font-family="arial" font-size="10.00" fill="#000000"> AI haben alle Menschen Zugriff auf die</text>
<text text-anchor="start" x="695.5435" y="-215" font-family="arial" font-size="10.00" fill="#000000"> gleichen Ressourcen.</text>
</g>
<!-- n0&#45;&gt;n4 -->
<g id="edge4" class="edge">
<title>n0&#45;&gt;n4</title>
<path fill="none" stroke="#00ff00" d="M512.2335,-164.0232C549.8581,-174.7819 593.6086,-187.6182 633,-200 635.9413,-200.9245 638.9229,-201.8713 641.9299,-202.8346"/>
<polygon fill="#00ff00" stroke="#00ff00" points="641.0097,-206.2154 651.6015,-205.96 643.1622,-199.5546 641.0097,-206.2154"/>
</g>
<!-- n5 -->
<g id="node6" class="node">
<title>n5</title>
<path fill="#ffffff" stroke="#1b9e77" stroke-width="2" d="M291,-70C291,-70 119,-70 119,-70 113,-70 107,-64 107,-58 107,-58 107,-18 107,-18 107,-12 113,-6 119,-6 119,-6 291,-6 291,-6 297,-6 303,-12 303,-18 303,-18 303,-58 303,-58 303,-64 297,-70 291,-70"/>
<text text-anchor="start" x="176.381" y="-56" font-family="arial" font-weight="bold" font-size="10.00" fill="#000000">Abhängigkeit</text>
<text text-anchor="start" x="127.7645" y="-39" font-family="arial" font-size="10.00" fill="#000000">Innerhalb kürzester Zeit nach der</text>
<text text-anchor="start" x="127.2105" y="-27" font-family="arial" font-size="10.00" fill="#000000"> Entwicklung einer GAI wird unsere</text>
<text text-anchor="start" x="140.8245" y="-15" font-family="arial" font-size="10.00" fill="#000000"> Zivilisation abhängig von ihr.</text>
</g>
<!-- n5&#45;&gt;n0 -->
<g id="edge5" class="edge">
<title>n5&#45;&gt;n0</title>
<path fill="none" stroke="#00ff00" d="M273.594,-70.0533C299.3991,-82.1117 328.6405,-95.776 354.0991,-107.6725"/>
<polygon fill="#00ff00" stroke="#00ff00" points="352.7526,-110.9065 363.294,-111.9692 355.716,-104.5647 352.7526,-110.9065"/>
</g>
<!-- n6 -->
<g id="node7" class="node">
<title>n6</title>
<path fill="#ffffff" stroke="#1b9e77" stroke-width="2" d="M505,-64C505,-64 333,-64 333,-64 327,-64 321,-58 321,-52 321,-52 321,-24 321,-24 321,-18 327,-12 333,-12 333,-12 505,-12 505,-12 511,-12 517,-18 517,-24 517,-24 517,-52 517,-52 517,-58 511,-64 505,-64"/>
<text text-anchor="start" x="365.104" y="-50" font-family="arial" font-weight="bold" font-size="10.00" fill="#000000">Unmoralische Absichten</text>
<text text-anchor="start" x="339.258" y="-33" font-family="arial" font-size="10.00" fill="#000000">Menschen mit schlechten Absichten</text>
<text text-anchor="start" x="351.5775" y="-21" font-family="arial" font-size="10.00" fill="#000000"> können die AI missbrauchen.</text>
</g>
<!-- n6&#45;&gt;n0 -->
<g id="edge6" class="edge">
<title>n6&#45;&gt;n0</title>
<path fill="none" stroke="#00ff00" d="M419,-64.0128C419,-75.4964 419,-89.1924 419,-101.6608"/>
<polygon fill="#00ff00" stroke="#00ff00" points="415.5001,-101.77 419,-111.7701 422.5001,-101.7701 415.5001,-101.77"/>
</g>
<!-- n7 -->
<g id="node8" class="node">
<title>n7</title>
<path fill="#ffffff" stroke="#1b9e77" stroke-width="2" d="M729,-76C729,-76 547,-76 547,-76 541,-76 535,-70 535,-64 535,-64 535,-12 535,-12 535,-6 541,0 547,0 547,0 729,0 729,0 735,0 741,-6 741,-12 741,-12 741,-64 741,-64 741,-70 735,-76 729,-76"/>
<text text-anchor="start" x="578.536" y="-62" font-family="arial" font-weight="bold" font-size="10.00" fill="#000000">Abschätzung der Gefahren</text>
<text text-anchor="start" x="544.743" y="-45" font-family="arial" font-size="10.00" fill="#000000">Eine Abschätzung möglicher Gefahren ist</text>
<text text-anchor="start" x="547.5325" y="-33" font-family="arial" font-size="10.00" fill="#000000"> schwer bis unmöglich. Deshalb wird die</text>
<text text-anchor="start" x="558.8185" y="-21" font-family="arial" font-size="10.00" fill="#000000"> Erfindung einer GAI als Singularität</text>
<text text-anchor="start" x="611.045" y="-9" font-family="arial" font-size="10.00" fill="#000000"> bezeichnet.</text>
</g>
<!-- n7&#45;&gt;n0 -->
<g id="edge7" class="edge">
<title>n7&#45;&gt;n0</title>
<path fill="none" stroke="#00ff00" d="M554.5808,-76.091C531.6291,-86.5712 507.0544,-97.7925 485.2169,-107.764"/>
<polygon fill="#00ff00" stroke="#00ff00" points="483.681,-104.6176 476.0382,-111.9551 486.5886,-110.9852 483.681,-104.6176"/>
</g>
</g>
</svg>
